<svg width="800" height="320" viewBox="0 0 800 320" xmlns="http://www.w3.org/2000/svg">
  <defs>
    <linearGradient id="bgGrad" x1="0%" y1="0%" x2="100%" y2="100%">
      <stop offset="0%" style="stop-color:#08080f"/>
      <stop offset="50%" style="stop-color:#0d0d1e"/>
      <stop offset="100%" style="stop-color:#080812"/>
    </linearGradient>
    <linearGradient id="topBorder" x1="0%" y1="0%" x2="100%" y2="0%">
      <stop offset="0%" style="stop-color:transparent"/>
      <stop offset="20%" style="stop-color:#F7DF1E"/>
      <stop offset="50%" style="stop-color:#7B61FF"/>
      <stop offset="80%" style="stop-color:#FF6B6B"/>
      <stop offset="100%" style="stop-color:transparent"/>
    </linearGradient>
    <linearGradient id="jGrad" x1="0%" y1="0%" x2="0%" y2="100%">
      <stop offset="0%" style="stop-color:#ffe94d"/>
      <stop offset="45%" style="stop-color:#F7DF1E"/>
      <stop offset="100%" style="stop-color:#b8a200"/>
    </linearGradient>
    <linearGradient id="wGrad" x1="0%" y1="0%" x2="0%" y2="100%">
      <stop offset="0%" style="stop-color:#ffffff"/>
      <stop offset="40%" style="stop-color:#e0e0ff"/>
      <stop offset="100%" style="stop-color:#9090cc"/>
    </linearGradient>
    <linearGradient id="scanGrad" x1="0%" y1="0%" x2="0%" y2="100%">
      <stop offset="0%" style="stop-color:#F7DF1E;stop-opacity:0"/>
      <stop offset="50%" style="stop-color:#F7DF1E;stop-opacity:0.04"/>
      <stop offset="100%" style="stop-color:#F7DF1E;stop-opacity:0"/>
    </linearGradient>
    <radialGradient id="topGlow" cx="50%" cy="0%" r="65%">
      <stop offset="0%" style="stop-color:#F7DF1E;stop-opacity:0.09"/>
      <stop offset="100%" style="stop-color:#000000;stop-opacity:0"/>
    </radialGradient>
    <filter id="blur1">
      <feGaussianBlur stdDeviation="1.5"/>
    </filter>
  </defs>

  <!-- Background -->
  <rect width="800" height="320" fill="url(#bgGrad)" rx="16"/>

  <!-- Dot grid -->
  <g opacity="0.045" fill="#F7DF1E">
    <circle cx="28" cy="28" r="1"/><circle cx="56" cy="28" r="1"/><circle cx="84" cy="28" r="1"/><circle cx="112" cy="28" r="1"/><circle cx="140" cy="28" r="1"/><circle cx="168" cy="28" r="1"/><circle cx="196" cy="28" r="1"/><circle cx="224" cy="28" r="1"/><circle cx="252" cy="28" r="1"/><circle cx="280" cy="28" r="1"/><circle cx="308" cy="28" r="1"/><circle cx="336" cy="28" r="1"/><circle cx="364" cy="28" r="1"/><circle cx="392" cy="28" r="1"/><circle cx="420" cy="28" r="1"/><circle cx="448" cy="28" r="1"/><circle cx="476" cy="28" r="1"/><circle cx="504" cy="28" r="1"/><circle cx="532" cy="28" r="1"/><circle cx="560" cy="28" r="1"/><circle cx="588" cy="28" r="1"/><circle cx="616" cy="28" r="1"/><circle cx="644" cy="28" r="1"/><circle cx="672" cy="28" r="1"/><circle cx="700" cy="28" r="1"/><circle cx="728" cy="28" r="1"/><circle cx="756" cy="28" r="1"/><circle cx="784" cy="28" r="1"/>
    <circle cx="28" cy="56" r="1"/><circle cx="56" cy="56" r="1"/><circle cx="84" cy="56" r="1"/><circle cx="112" cy="56" r="1"/><circle cx="140" cy="56" r="1"/><circle cx="168" cy="56" r="1"/><circle cx="196" cy="56" r="1"/><circle cx="224" cy="56" r="1"/><circle cx="252" cy="56" r="1"/><circle cx="280" cy="56" r="1"/><circle cx="308" cy="56" r="1"/><circle cx="336" cy="56" r="1"/><circle cx="364" cy="56" r="1"/><circle cx="392" cy="56" r="1"/><circle cx="420" cy="56" r="1"/><circle cx="448" cy="56" r="1"/><circle cx="476" cy="56" r="1"/><circle cx="504" cy="56" r="1"/><circle cx="532" cy="56" r="1"/><circle cx="560" cy="56" r="1"/><circle cx="588" cy="56" r="1"/><circle cx="616" cy="56" r="1"/><circle cx="644" cy="56" r="1"/><circle cx="672" cy="56" r="1"/><circle cx="700" cy="56" r="1"/><circle cx="728" cy="56" r="1"/><circle cx="756" cy="56" r="1"/><circle cx="784" cy="56" r="1"/>
    <circle cx="28" cy="84" r="1"/><circle cx="56" cy="84" r="1"/><circle cx="84" cy="84" r="1"/><circle cx="112" cy="84" r="1"/><circle cx="140" cy="84" r="1"/><circle cx="168" cy="84" r="1"/><circle cx="196" cy="84" r="1"/><circle cx="224" cy="84" r="1"/><circle cx="252" cy="84" r="1"/><circle cx="280" cy="84" r="1"/><circle cx="308" cy="84" r="1"/><circle cx="336" cy="84" r="1"/><circle cx="364" cy="84" r="1"/><circle cx="392" cy="84" r="1"/><circle cx="420" cy="84" r="1"/><circle cx="448" cy="84" r="1"/><circle cx="476" cy="84" r="1"/><circle cx="504" cy="84" r="1"/><circle cx="532" cy="84" r="1"/><circle cx="560" cy="84" r="1"/><circle cx="588" cy="84" r="1"/><circle cx="616" cy="84" r="1"/><circle cx="644" cy="84" r="1"/><circle cx="672" cy="84" r="1"/><circle cx="700" cy="84" r="1"/><circle cx="728" cy="84" r="1"/><circle cx="756" cy="84" r="1"/><circle cx="784" cy="84" r="1"/>
    <circle cx="28" cy="112" r="1"/><circle cx="56" cy="112" r="1"/><circle cx="84" cy="112" r="1"/><circle cx="112" cy="112" r="1"/><circle cx="140" cy="112" r="1"/><circle cx="168" cy="112" r="1"/><circle cx="196" cy="112" r="1"/><circle cx="224" cy="112" r="1"/><circle cx="252" cy="112" r="1"/><circle cx="280" cy="112" r="1"/><circle cx="308" cy="112" r="1"/><circle cx="336" cy="112" r="1"/><circle cx="364" cy="112" r="1"/><circle cx="392" cy="112" r="1"/><circle cx="420" cy="112" r="1"/><circle cx="448" cy="112" r="1"/><circle cx="476" cy="112" r="1"/><circle cx="504" cy="112" r="1"/><circle cx="532" cy="112" r="1"/><circle cx="560" cy="112" r="1"/><circle cx="588" cy="112" r="1"/><circle cx="616" cy="112" r="1"/><circle cx="644" cy="112" r="1"/><circle cx="672" cy="112" r="1"/><circle cx="700" cy="112" r="1"/><circle cx="728" cy="112" r="1"/><circle cx="756" cy="112" r="1"/><circle cx="784" cy="112" r="1"/>
    <circle cx="28" cy="140" r="1"/><circle cx="56" cy="140" r="1"/><circle cx="84" cy="140" r="1"/><circle cx="112" cy="140" r="1"/><circle cx="140" cy="140" r="1"/><circle cx="168" cy="140" r="1"/><circle cx="196" cy="140" r="1"/><circle cx="224" cy="140" r="1"/><circle cx="252" cy="140" r="1"/><circle cx="280" cy="140" r="1"/><circle cx="308" cy="140" r="1"/><circle cx="336" cy="140" r="1"/><circle cx="364" cy="140" r="1"/><circle cx="392" cy="140" r="1"/><circle cx="420" cy="140" r="1"/><circle cx="448" cy="140" r="1"/><circle cx="476" cy="140" r="1"/><circle cx="504" cy="140" r="1"/><circle cx="532" cy="140" r="1"/><circle cx="560" cy="140" r="1"/><circle cx="588" cy="140" r="1"/><circle cx="616" cy="140" r="1"/><circle cx="644" cy="140" r="1"/><circle cx="672" cy="140" r="1"/><circle cx="700" cy="140" r="1"/><circle cx="728" cy="140" r="1"/><circle cx="756" cy="140" r="1"/><circle cx="784" cy="140" r="1"/>
    <circle cx="28" cy="168" r="1"/><circle cx="56" cy="168" r="1"/><circle cx="84" cy="168" r="1"/><circle cx="112" cy="168" r="1"/><circle cx="140" cy="168" r="1"/><circle cx="168" cy="168" r="1"/><circle cx="196" cy="168" r="1"/><circle cx="224" cy="168" r="1"/><circle cx="252" cy="168" r="1"/><circle cx="280" cy="168" r="1"/><circle cx="308" cy="168" r="1"/><circle cx="336" cy="168" r="1"/><circle cx="364" cy="168" r="1"/><circle cx="392" cy="168" r="1"/><circle cx="420" cy="168" r="1"/><circle cx="448" cy="168" r="1"/><circle cx="476" cy="168" r="1"/><circle cx="504" cy="168" r="1"/><circle cx="532" cy="168" r="1"/><circle cx="560" cy="168" r="1"/><circle cx="588" cy="168" r="1"/><circle cx="616" cy="168" r="1"/><circle cx="644" cy="168" r="1"/><circle cx="672" cy="168" r="1"/><circle cx="700" cy="168" r="1"/><circle cx="728" cy="168" r="1"/><circle cx="756" cy="168" r="1"/><circle cx="784" cy="168" r="1"/>
    <circle cx="28" cy="196" r="1"/><circle cx="56" cy="196" r="1"/><circle cx="84" cy="196" r="1"/><circle cx="112" cy="196" r="1"/><circle cx="140" cy="196" r="1"/><circle cx="168" cy="196" r="1"/><circle cx="196" cy="196" r="1"/><circle cx="224" cy="196" r="1"/><circle cx="252" cy="196" r="1"/><circle cx="280" cy="196" r="1"/><circle cx="308" cy="196" r="1"/><circle cx="336" cy="196" r="1"/><circle cx="364" cy="196" r="1"/><circle cx="392" cy="196" r="1"/><circle cx="420" cy="196" r="1"/><circle cx="448" cy="196" r="1"/><circle cx="476" cy="196" r="1"/><circle cx="504" cy="196" r="1"/><circle cx="532" cy="196" r="1"/><circle cx="560" cy="196" r="1"/><circle cx="588" cy="196" r="1"/><circle cx="616" cy="196" r="1"/><circle cx="644" cy="196" r="1"/><circle cx="672" cy="196" r="1"/><circle cx="700" cy="196" r="1"/><circle cx="728" cy="196" r="1"/><circle cx="756" cy="196" r="1"/><circle cx="784" cy="196" r="1"/>
    <circle cx="28" cy="224" r="1"/><circle cx="56" cy="224" r="1"/><circle cx="84" cy="224" r="1"/><circle cx="112" cy="224" r="1"/><circle cx="140" cy="224" r="1"/><circle cx="168" cy="224" r="1"/><circle cx="196" cy="224" r="1"/><circle cx="224" cy="224" r="1"/><circle cx="252" cy="224" r="1"/><circle cx="280" cy="224" r="1"/><circle cx="308" cy="224" r="1"/><circle cx="336" cy="224" r="1"/><circle cx="364" cy="224" r="1"/><circle cx="392" cy="224" r="1"/><circle cx="420" cy="224" r="1"/><circle cx="448" cy="224" r="1"/><circle cx="476" cy="224" r="1"/><circle cx="504" cy="224" r="1"/><circle cx="532" cy="224" r="1"/><circle cx="560" cy="224" r="1"/><circle cx="588" cy="224" r="1"/><circle cx="616" cy="224" r="1"/><circle cx="644" cy="224" r="1"/><circle cx="672" cy="224" r="1"/><circle cx="700" cy="224" r="1"/><circle cx="728" cy="224" r="1"/><circle cx="756" cy="224" r="1"/><circle cx="784" cy="224" r="1"/>
    <circle cx="28" cy="252" r="1"/><circle cx="56" cy="252" r="1"/><circle cx="84" cy="252" r="1"/><circle cx="112" cy="252" r="1"/><circle cx="140" cy="252" r="1"/><circle cx="168" cy="252" r="1"/><circle cx="196" cy="252" r="1"/><circle cx="224" cy="252" r="1"/><circle cx="252" cy="252" r="1"/><circle cx="280" cy="252" r="1"/><circle cx="308" cy="252" r="1"/><circle cx="336" cy="252" r="1"/><circle cx="364" cy="252" r="1"/><circle cx="392" cy="252" r="1"/><circle cx="420" cy="252" r="1"/><circle cx="448" cy="252" r="1"/><circle cx="476" cy="252" r="1"/><circle cx="504" cy="252" r="1"/><circle cx="532" cy="252" r="1"/><circle cx="560" cy="252" r="1"/><circle cx="588" cy="252" r="1"/><circle cx="616" cy="252" r="1"/><circle cx="644" cy="252" r="1"/><circle cx="672" cy="252" r="1"/><circle cx="700" cy="252" r="1"/><circle cx="728" cy="252" r="1"/><circle cx="756" cy="252" r="1"/><circle cx="784" cy="252" r="1"/>
    <circle cx="28" cy="280" r="1"/><circle cx="56" cy="280" r="1"/><circle cx="84" cy="280" r="1"/><circle cx="112" cy="280" r="1"/><circle cx="140" cy="280" r="1"/><circle cx="168" cy="280" r="1"/><circle cx="196" cy="280" r="1"/><circle cx="224" cy="280" r="1"/><circle cx="252" cy="280" r="1"/><circle cx="280" cy="280" r="1"/><circle cx="308" cy="280" r="1"/><circle cx="336" cy="280" r="1"/><circle cx="364" cy="280" r="1"/><circle cx="392" cy="280" r="1"/><circle cx="420" cy="280" r="1"/><circle cx="448" cy="280" r="1"/><circle cx="476" cy="280" r="1"/><circle cx="504" cy="280" r="1"/><circle cx="532" cy="280" r="1"/><circle cx="560" cy="280" r="1"/><circle cx="588" cy="280" r="1"/><circle cx="616" cy="280" r="1"/><circle cx="644" cy="280" r="1"/><circle cx="672" cy="280" r="1"/><circle cx="700" cy="280" r="1"/><circle cx="728" cy="280" r="1"/><circle cx="756" cy="280" r="1"/><circle cx="784" cy="280" r="1"/>
    <circle cx="28" cy="308" r="1"/><circle cx="56" cy="308" r="1"/><circle cx="84" cy="308" r="1"/><circle cx="112" cy="308" r="1"/><circle cx="140" cy="308" r="1"/><circle cx="168" cy="308" r="1"/><circle cx="196" cy="308" r="1"/><circle cx="224" cy="308" r="1"/><circle cx="252" cy="308" r="1"/><circle cx="280" cy="308" r="1"/><circle cx="308" cy="308" r="1"/><circle cx="336" cy="308" r="1"/><circle cx="364" cy="308" r="1"/><circle cx="392" cy="308" r="1"/><circle cx="420" cy="308" r="1"/><circle cx="448" cy="308" r="1"/><circle cx="476" cy="308" r="1"/><circle cx="504" cy="308" r="1"/><circle cx="532" cy="308" r="1"/><circle cx="560" cy="308" r="1"/><circle cx="588" cy="308" r="1"/><circle cx="616" cy="308" r="1"/><circle cx="644" cy="308" r="1"/><circle cx="672" cy="308" r="1"/><circle cx="700" cy="308" r="1"/><circle cx="728" cy="308" r="1"/><circle cx="756" cy="308" r="1"/><circle cx="784" cy="308" r="1"/>
  </g>

  <!-- Top glow -->
  <rect width="800" height="320" fill="url(#topGlow)" rx="16"/>

  <!-- Particles (colored dots scattered) -->
  <g opacity="0.7">
    <circle cx="45" cy="38" r="1.5" fill="#F7DF1E" opacity="0.5"><animate attributeName="opacity" values="0.5;0.9;0.5" dur="3.2s" repeatCount="indefinite"/></circle>
    <circle cx="710" cy="55" r="1.2" fill="#7B61FF" opacity="0.5"><animate attributeName="opacity" values="0.4;0.8;0.4" dur="2.8s" repeatCount="indefinite"/></circle>
    <circle cx="760" cy="200" r="1.8" fill="#FF6B6B" opacity="0.4"><animate attributeName="opacity" values="0.3;0.7;0.3" dur="3.5s" repeatCount="indefinite"/></circle>
    <circle cx="35" cy="220" r="1.3" fill="#00D26A" opacity="0.45"><animate attributeName="opacity" values="0.4;0.8;0.4" dur="4s" repeatCount="indefinite"/></circle>
    <circle cx="680" cy="290" r="1.6" fill="#63B3ED" opacity="0.4"><animate attributeName="opacity" values="0.3;0.6;0.3" dur="2.5s" repeatCount="indefinite"/></circle>
    <circle cx="120" cy="290" r="1.1" fill="#F7DF1E" opacity="0.35"><animate attributeName="opacity" values="0.3;0.7;0.3" dur="3.8s" repeatCount="indefinite"/></circle>
    <circle cx="750" cy="130" r="1.4" fill="#7B61FF" opacity="0.4"><animate attributeName="opacity" values="0.35;0.75;0.35" dur="2.2s" repeatCount="indefinite"/></circle>
    <circle cx="60" cy="160" r="1.2" fill="#FF6B6B" opacity="0.4"><animate attributeName="opacity" values="0.4;0.8;0.4" dur="3.1s" repeatCount="indefinite"/></circle>
    <circle cx="400" cy="25" r="1.5" fill="#00D26A" opacity="0.35"><animate attributeName="opacity" values="0.25;0.6;0.25" dur="4.2s" repeatCount="indefinite"/></circle>
    <circle cx="550" cy="305" r="1.3" fill="#F7DF1E" opacity="0.4"><animate attributeName="opacity" values="0.3;0.65;0.3" dur="3.6s" repeatCount="indefinite"/></circle>
    <circle cx="200" cy="18" r="1.1" fill="#7B61FF" opacity="0.35"><animate attributeName="opacity" values="0.25;0.55;0.25" dur="2.9s" repeatCount="indefinite"/></circle>
    <circle cx="640" cy="22" r="1.4" fill="#FF6B6B" opacity="0.4"><animate attributeName="opacity" values="0.3;0.7;0.3" dur="3.3s" repeatCount="indefinite"/></circle>
  </g>

  <!-- Scanline sweep animation -->
  <rect width="800" height="30" fill="url(#scanGrad)" rx="0">
    <animateTransform attributeName="transform" type="translate" values="0,-30;0,340" dur="5s" repeatCount="indefinite"/>
  </rect>

  <!-- 3D Shadow layers for J -->
  <text x="82" y="152" font-family="'Courier New',monospace" font-size="88" font-weight="900" fill="rgba(180,160,0,0.18)" filter="url(#blur1)">J</text>
  <text x="80" y="150" font-family="'Courier New',monospace" font-size="88" font-weight="900" fill="rgba(180,160,0,0.22)">J</text>
  <text x="78" y="148" font-family="'Courier New',monospace" font-size="88" font-weight="900" fill="rgba(180,160,0,0.16)">J</text>
  <!-- J main -->
  <text x="76" y="146" font-family="'Courier New',monospace" font-size="88" font-weight="900" fill="url(#jGrad)">J</text>

  <!-- 3D Shadow layers for S -->
  <text x="168" y="152" font-family="'Courier New',monospace" font-size="88" font-weight="900" fill="rgba(180,160,0,0.18)" filter="url(#blur1)">S</text>
  <text x="166" y="150" font-family="'Courier New',monospace" font-size="88" font-weight="900" fill="rgba(180,160,0,0.22)">S</text>
  <text x="164" y="148" font-family="'Courier New',monospace" font-size="88" font-weight="900" fill="rgba(180,160,0,0.16)">S</text>
  <!-- S main -->
  <text x="162" y="146" font-family="'Courier New',monospace" font-size="88" font-weight="900" fill="url(#jGrad)">S</text>

  <!-- Divider dot -->
  <circle cx="268" cy="110" r="5" fill="#7B61FF" opacity="0.7"/>
  <circle cx="268" cy="110" r="8" fill="#7B61FF" opacity="0.15"/>

  <!-- 3D FUNDAMENTALS text -->
  <!-- F -->
  <text x="293" y="152" font-family="'Courier New',monospace" font-size="88" font-weight="900" fill="rgba(80,60,180,0.20)" filter="url(#blur1)">F</text>
  <text x="291" y="150" font-family="'Courier New',monospace" font-size="88" font-weight="900" fill="rgba(80,60,180,0.22)">F</text>
  <text x="289" y="148" font-family="'Courier New',monospace" font-size="88" font-weight="900" fill="rgba(80,60,180,0.15)">F</text>
  <text x="287" y="146" font-family="'Courier New',monospace" font-size="88" font-weight="900" fill="url(#wGrad)">F</text>

  <!-- U -->
  <text x="350" y="152" font-family="'Courier New',monospace" font-size="88" font-weight="900" fill="rgba(80,60,180,0.20)" filter="url(#blur1)">U</text>
  <text x="348" y="150" font-family="'Courier New',monospace" font-size="88" font-weight="900" fill="rgba(80,60,180,0.22)">U</text>
  <text x="346" y="148" font-family="'Courier New',monospace" font-size="88" font-weight="900" fill="rgba(80,60,180,0.15)">U</text>
  <text x="344" y="146" font-family="'Courier New',monospace" font-size="88" font-weight="900" fill="url(#wGrad)">U</text>

  <!-- N -->
  <text x="418" y="152" font-family="'Courier New',monospace" font-size="88" font-weight="900" fill="rgba(80,60,180,0.20)" filter="url(#blur1)">N</text>
  <text x="416" y="150" font-family="'Courier New',monospace" font-size="88" font-weight="900" fill="rgba(80,60,180,0.22)">N</text>
  <text x="414" y="148" font-family="'Courier New',monospace" font-size="88" font-weight="900" fill="rgba(80,60,180,0.15)">N</text>
  <text x="412" y="146" font-family="'Courier New',monospace" font-size="88" font-weight="900" fill="url(#wGrad)">N</text>

  <!-- D -->
  <text x="488" y="152" font-family="'Courier New',monospace" font-size="88" font-weight="900" fill="rgba(80,60,180,0.20)" filter="url(#blur1)">D</text>
  <text x="486" y="150" font-family="'Courier New',monospace" font-size="88" font-weight="900" fill="rgba(80,60,180,0.22)">D</text>
  <text x="484" y="148" font-family="'Courier New',monospace" font-size="88" font-weight="900" fill="rgba(80,60,180,0.15)">D</text>
  <text x="482" y="146" font-family="'Courier New',monospace" font-size="88" font-weight="900" fill="url(#wGrad)">D</text>

  <!-- S2 -->
  <text x="556" y="152" font-family="'Courier New',monospace" font-size="88" font-weight="900" fill="rgba(80,60,180,0.20)" filter="url(#blur1)">S</text>
  <text x="554" y="150" font-family="'Courier New',monospace" font-size="88" font-weight="900" fill="rgba(80,60,180,0.22)">S</text>
  <text x="552" y="148" font-family="'Courier New',monospace" font-size="88" font-weight="900" fill="rgba(80,60,180,0.15)">S</text>
  <text x="550" y="146" font-family="'Courier New',monospace" font-size="88" font-weight="900" fill="url(#wGrad)">S</text>

  <!-- floating pulse rings around JS -->
  <circle cx="130" cy="103" r="50" fill="none" stroke="#F7DF1E" stroke-width="0.5" opacity="0.15">
    <animate attributeName="r" values="45;60;45" dur="4s" repeatCount="indefinite"/>
    <animate attributeName="opacity" values="0.15;0.04;0.15" dur="4s" repeatCount="indefinite"/>
  </circle>
  <circle cx="130" cy="103" r="65" fill="none" stroke="#F7DF1E" stroke-width="0.5" opacity="0.08">
    <animate attributeName="r" values="60;78;60" dur="4s" begin="0.5s" repeatCount="indefinite"/>
    <animate attributeName="opacity" values="0.08;0.02;0.08" dur="4s" begin="0.5s" repeatCount="indefinite"/>
  </circle>

  <!-- Subtitle -->
  <text x="400" y="195" font-family="'Courier New',monospace" font-size="12.5" fill="rgba(200,200,255,0.45)" text-anchor="middle" letter-spacing="2">MERN STACK + AI ENGINEERING BOOTCAMP  ·  WEEK 3</text>

  <!-- Thin separator line -->
  <line x1="60" y1="210" x2="740" y2="210" stroke="rgba(255,255,255,0.07)" stroke-width="0.5"/>

  <!-- Bottom section: week / section / marks / status chips -->
  <g font-family="'Courier New',monospace" font-size="11" font-weight="700">
    <!-- JS chip -->
    <rect x="60" y="224" width="118" height="24" rx="12" fill="#F7DF1E"/>
    <text x="119" y="240" fill="#0a0a00" text-anchor="middle">JavaScript ES2024</text>

    <!-- Complete chip -->
    <rect x="188" y="224" width="85" height="24" rx="12" fill="rgba(0,210,106,0.15)" stroke="rgba(0,210,106,0.35)" stroke-width="0.8"/>
    <text x="230" y="240" fill="#00e676" text-anchor="middle">✓ Complete</text>

    <!-- Section A chip -->
    <rect x="283" y="224" width="120" height="24" rx="12" fill="rgba(138,99,255,0.15)" stroke="rgba(138,99,255,0.35)" stroke-width="0.8"/>
    <text x="343" y="240" fill="#b085ff" text-anchor="middle">Section A · 30 Marks</text>

    <!-- Week 3 chip -->
    <rect x="413" y="224" width="70" height="24" rx="12" fill="rgba(255,107,107,0.15)" stroke="rgba(255,107,107,0.35)" stroke-width="0.8"/>
    <text x="448" y="240" fill="#ff8a8a" text-anchor="middle">Week 3</text>

    <!-- Bootcamp chip -->
    <rect x="493" y="224" width="130" height="24" rx="12" fill="rgba(99,179,237,0.15)" stroke="rgba(99,179,237,0.35)" stroke-width="0.8"/>
    <text x="558" y="240" fill="#90caf9" text-anchor="middle">MERN + AI Bootcamp</text>
  </g>

  <!-- Bottom separator -->
  <line x1="60" y1="262" x2="740" y2="262" stroke="rgba(255,255,255,0.05)" stroke-width="0.5"/>

  <!-- Topic pills row -->
  <g font-family="'Courier New',monospace" font-size="10" fill="rgba(255,255,255,0.32)">
    <text x="72" y="283">var/let/const</text>
    <text x="162" y="283">·</text>
    <text x="172" y="283">V8 Engine</text>
    <text x="243" y="283">·</text>
    <text x="253" y="283">Coercion</text>
    <text x="316" y="283">·</text>
    <text x="326" y="283">Heap/Stack</text>
    <text x="400" y="283">·</text>
    <text x="410" y="283">Pass by Ref</text>
    <text x="487" y="283">·</text>
    <text x="497" y="283">Functions</text>
  </g>
  <!-- 30/30 pill right side -->
  <rect x="630" y="270" width="108" height="22" rx="11" fill="rgba(0,210,106,0.12)" stroke="rgba(0,210,106,0.3)" stroke-width="0.8"/>
  <text x="684" y="285" font-family="'Courier New',monospace" font-size="10.5" font-weight="700" fill="#00e676" text-anchor="middle">30 / 30  ✓</text>

  <!-- Rainbow top border (animated shimmer) -->
  <rect width="800" height="3" rx="0" fill="url(#topBorder)">
    <animate attributeName="opacity" values="0.7;1;0.7" dur="3s" repeatCount="indefinite"/>
  </rect>

  <!-- Corner accent top-right -->
  <circle cx="775" cy="32" r="18" fill="rgba(123,97,255,0.08)" stroke="rgba(123,97,255,0.2)" stroke-width="0.5"/>
  <text x="775" y="37" font-family="'Courier New',monospace" font-size="11" font-weight="700" fill="#b085ff" text-anchor="middle">JS</text>

</svg>



  

